<svg width="58" height="39" viewBox="0 0 58 39" fill="none" xmlns="http://www.w3.org/2000/svg">
<path d="M22.99 4.81875V2.88515L21.412 4.00268L20.1345 4.90748L22.9906 2.88439V11.04V12.0304L23.981 12.04C35.9852 12.156 42.1467 16.8252 45.3781 22.3434C47.8165 26.5076 48.6432 31.2486 48.9074 35.1485C48.2003 34.1162 47.4806 33.1771 46.7485 32.3231L48.2447 31.0298C40.3899 21.9429 31.2723 21.9406 24.0401 21.9388L23.9909 21.9388H23.9906H21.99H20.99V22.9388V29.1369L5.18766 17.9438L20.99 6.75235V13.02H22.99V4.81875ZM22.9906 33.0031L22.99 33.0027V31.0706V23.9388H23.9904C23.9904 23.9388 23.9905 23.9388 23.9906 23.9388C27.4481 23.9396 31.1479 23.9461 34.8594 24.8704C31.3016 24.0067 27.6403 23.9408 23.991 23.9394L22.9906 23.939V24.9394V33.0031Z" fill="#F37317" stroke="#2A231C" stroke-width="2"/>
</svg>
